# xmcd
#
# Track frame offsets: 
#        150
#        27256
#        53347
#        74182
#        94629
#        136021
#        161082
#        179944
#        200471
#        227233
#        260982
#
# Disc length: 4031 seconds
#
# Revision: 0
# Processed by: cddbd v1.5.2PL0 Copyright (c) Steve Scherf et al.
# Submitted via: ExactAudioCopy v1.3
#
DISCID=a30fbd0b
DTITLE=Eagles - Live in Houston (Pink Champagne)
DYEAR=1900
DGENRE=Rock and Roll
TTITLE0=Wasted Time
TTITLE1=Take It To The Limit
TTITLE2=Desperado
TTITLE3=Midnight Flyer
TTITLE4=Turn To Stone
TTITLE5=Already Gone
TTITLE6=One Of These Nights
TTITLE7=Funk 49
TTITLE8=Good Day In Hell
TTITLE9=Rocky Mountain Way
TTITLE10=Witchy Woman
EXTD=
EXTT0=
EXTT1=
EXTT2=
EXTT3=
EXTT4=
EXTT5=
EXTT6=
EXTT7=
EXTT8=
EXTT9=
EXTT10=
PLAYORDER=
